<svg width="8" height="25" viewBox="0 0 8 25" fill="none" xmlns="http://www.w3.org/2000/svg">
<path d="M4.8952 2.44966C4.8952 1.7732 4.34729 1.22483 3.6714 1.22483C2.99551 1.22483 2.4476 1.7732 2.4476 2.44966V17.3567C2.83038 17.2213 3.24229 17.1476 3.6714 17.1476C4.10051 17.1476 4.51242 17.2213 4.8952 17.3567V15.9228H4.2833C3.94536 15.9228 3.6714 15.6486 3.6714 15.3104C3.6714 14.9721 3.94536 14.698 4.2833 14.698H4.8952V13.4731H4.2833C3.94536 13.4731 3.6714 13.1989 3.6714 12.8607C3.6714 12.5225 3.94536 12.2483 4.2833 12.2483H4.8952V11.0235H4.2833C3.94536 11.0235 3.6714 10.7493 3.6714 10.4111C3.6714 10.0728 3.94536 9.79864 4.2833 9.79864H4.8952V8.57381H4.2833C3.94536 8.57381 3.6714 8.29962 3.6714 7.96139C3.6714 7.62316 3.94536 7.34898 4.2833 7.34898H4.8952V6.12415H4.2833C3.94536 6.12415 3.6714 5.84996 3.6714 5.51173C3.6714 5.17351 3.94536 4.89932 4.2833 4.89932H4.8952V3.67449H4.2833C3.94536 3.67449 3.6714 3.4003 3.6714 3.06207C3.6714 2.72385 3.94536 2.44966 4.2833 2.44966H4.8952ZM1.2238 18.0833V2.44966C1.2238 1.09675 2.31963 0 3.6714 0C5.02317 0 6.119 1.09675 6.119 2.44966V18.0833C6.87011 18.7561 7.3428 19.7338 7.3428 20.8221C7.3428 22.8515 5.69906 24.4966 3.6714 24.4966C1.64374 24.4966 0 22.8515 0 20.8221C0 19.7338 0.472694 18.7561 1.2238 18.0833ZM2.19217 18.8703C1.60375 19.3177 1.2238 20.0255 1.2238 20.8221C1.2238 22.175 2.31963 23.2718 3.6714 23.2718C5.02317 23.2718 6.119 22.175 6.119 20.8221C6.119 20.0255 5.73906 19.3177 5.15063 18.8703C5.14344 18.8651 5.13637 18.8598 5.12942 18.8543C4.72216 18.5516 4.21768 18.3724 3.6714 18.3724C3.12512 18.3724 2.62064 18.5516 2.21339 18.8543C2.20643 18.8598 2.19936 18.8651 2.19217 18.8703ZM3.6714 22.0469C2.99551 22.0469 2.4476 21.4986 2.4476 20.8221C2.4476 20.1456 2.99551 19.5973 3.6714 19.5973C4.34729 19.5973 4.8952 20.1456 4.8952 20.8221C4.8952 21.4986 4.34729 22.0469 3.6714 22.0469Z" fill="#77B691"/>
</svg>
