<svg width="254" height="207" viewBox="0 0 254 207" fill="none" xmlns="http://www.w3.org/2000/svg">
<rect width="254" height="207" rx="10" fill="white"/>
<path d="M18.792 15.6C19.464 15.6 20.028 15.736 20.484 16.008C20.94 16.28 21.276 16.636 21.492 17.076C21.708 17.516 21.816 17.988 21.816 18.492C21.816 18.996 21.708 19.464 21.492 19.896C21.284 20.32 20.952 20.664 20.496 20.928C20.04 21.192 19.472 21.324 18.792 21.324H17.316V24H15.684V15.6H18.792ZM18.54 19.956C19.012 19.956 19.408 19.844 19.728 19.62C20.048 19.396 20.208 19.02 20.208 18.492C20.208 17.964 20.048 17.596 19.728 17.388C19.416 17.172 19.02 17.064 18.54 17.064H17.316V19.956H18.54ZM22.9039 17.664H24.5479V18.672H24.6319C24.7359 18.392 24.9279 18.156 25.2079 17.964C25.4879 17.764 25.8479 17.664 26.2879 17.664C26.4559 17.664 26.5999 17.68 26.7199 17.712L26.6479 19.236C26.4479 19.18 26.2359 19.152 26.0119 19.152C25.5159 19.152 25.1479 19.284 24.9079 19.548C24.6679 19.804 24.5479 20.232 24.5479 20.832V24H22.9039V17.664ZM30.2933 24.096C29.6293 24.096 29.0693 23.948 28.6133 23.652C28.1653 23.348 27.8293 22.948 27.6053 22.452C27.3813 21.956 27.2693 21.412 27.2693 20.82C27.2693 20.228 27.3773 19.684 27.5933 19.188C27.8173 18.684 28.1573 18.28 28.6133 17.976C29.0693 17.672 29.6293 17.52 30.2933 17.52C30.9573 17.52 31.5173 17.672 31.9733 17.976C32.4293 18.272 32.7693 18.668 32.9933 19.164C33.2173 19.66 33.3293 20.204 33.3293 20.796C33.3293 21.388 33.2173 21.936 32.9933 22.44C32.7693 22.936 32.4293 23.336 31.9733 23.64C31.5173 23.944 30.9573 24.096 30.2933 24.096ZM30.2933 22.752C30.7573 22.752 31.1053 22.568 31.3373 22.2C31.5773 21.824 31.6973 21.356 31.6973 20.796C31.6973 20.236 31.5773 19.776 31.3373 19.416C31.1053 19.048 30.7573 18.864 30.2933 18.864C29.8293 18.864 29.4813 19.048 29.2493 19.416C29.0173 19.776 28.9013 20.236 28.9013 20.796C28.9013 21.356 29.0173 21.824 29.2493 22.2C29.4893 22.568 29.8373 22.752 30.2933 22.752ZM36.8083 24.096C36.0083 24.096 35.3883 23.796 34.9483 23.196C34.5163 22.596 34.3003 21.804 34.3003 20.82C34.3003 19.812 34.5163 19.008 34.9483 18.408C35.3883 17.808 36.0123 17.508 36.8203 17.508C37.3643 17.508 37.7883 17.632 38.0923 17.88C38.3963 18.12 38.6123 18.376 38.7403 18.648H38.8363V14.988H40.5043V24H38.8363V22.908H38.7403C38.5963 23.204 38.3723 23.476 38.0683 23.724C37.7643 23.972 37.3443 24.096 36.8083 24.096ZM37.4083 22.776C37.8803 22.776 38.2363 22.584 38.4763 22.2C38.7163 21.816 38.8363 21.356 38.8363 20.82C38.8363 20.292 38.7163 19.836 38.4763 19.452C38.2363 19.068 37.8803 18.876 37.4083 18.876C36.9283 18.876 36.5683 19.068 36.3283 19.452C36.0963 19.828 35.9803 20.28 35.9803 20.808C35.9803 21.352 36.0963 21.816 36.3283 22.2C36.5683 22.584 36.9283 22.776 37.4083 22.776ZM47.6354 24H45.9674V22.992H45.8834C45.7394 23.304 45.5114 23.572 45.1994 23.796C44.8954 24.012 44.5194 24.12 44.0714 24.12C43.2634 24.12 42.6954 23.856 42.3674 23.328C42.0394 22.792 41.8754 22.192 41.8754 21.528V17.664H43.5314V21.252C43.5314 21.708 43.6354 22.072 43.8434 22.344C44.0514 22.608 44.3474 22.74 44.7314 22.74C45.1474 22.74 45.4554 22.6 45.6554 22.32C45.8634 22.04 45.9674 21.684 45.9674 21.252V17.664H47.6354V24ZM49.1313 15.084H50.7993V20.04H50.8593L52.7793 17.664H54.6273L52.3353 20.556L54.6873 24H52.8393L50.8713 20.952H50.7993V24H49.1313V15.084ZM57.7274 24.096C57.1914 24.096 56.7274 23.996 56.3354 23.796C55.9514 23.596 55.6594 23.336 55.4594 23.016C55.2594 22.688 55.1594 22.344 55.1594 21.984V21.912H56.7794V21.984C56.7794 22.2 56.8634 22.392 57.0314 22.56C57.1994 22.728 57.4434 22.812 57.7634 22.812C58.0274 22.812 58.2394 22.752 58.3994 22.632C58.5674 22.504 58.6514 22.332 58.6514 22.116C58.6514 21.924 58.5794 21.772 58.4354 21.66C58.2914 21.548 58.1114 21.476 57.8954 21.444L57.1754 21.3C56.7034 21.212 56.2754 21.024 55.8914 20.736C55.5074 20.448 55.3154 20.012 55.3154 19.428C55.3154 18.828 55.5354 18.36 55.9754 18.024C56.4154 17.68 56.9794 17.508 57.6674 17.508C58.1714 17.508 58.6074 17.6 58.9754 17.784C59.3434 17.968 59.6234 18.212 59.8154 18.516C60.0074 18.812 60.1034 19.132 60.1034 19.476V19.524H58.4834V19.488C58.4834 19.296 58.4114 19.12 58.2674 18.96C58.1234 18.792 57.9034 18.708 57.6074 18.708C57.3594 18.708 57.1594 18.772 57.0074 18.9C56.8554 19.028 56.7794 19.196 56.7794 19.404C56.7794 19.596 56.8554 19.748 57.0074 19.86C57.1674 19.972 57.3634 20.048 57.5954 20.088L58.3874 20.244C58.8994 20.356 59.3314 20.56 59.6834 20.856C60.0354 21.144 60.2114 21.556 60.2114 22.092C60.2114 22.492 60.1034 22.844 59.8874 23.148C59.6714 23.452 59.3714 23.688 58.9874 23.856C58.6114 24.016 58.1914 24.096 57.7274 24.096ZM61.4971 17.664H63.1531V24H61.4971V17.664ZM62.3131 16.572C62.0491 16.572 61.8291 16.484 61.6531 16.308C61.4771 16.124 61.3891 15.904 61.3891 15.648C61.3891 15.384 61.4771 15.164 61.6531 14.988C61.8291 14.812 62.0491 14.724 62.3131 14.724C62.5771 14.724 62.7971 14.816 62.9731 15C63.1491 15.176 63.2371 15.392 63.2371 15.648C63.2371 15.904 63.1491 16.124 62.9731 16.308C62.7971 16.484 62.5771 16.572 62.3131 16.572ZM74.2609 15.6V24H72.5929V20.436H69.1489V24H67.4809V15.6H69.1489V19.128H72.5929V15.6H74.2609ZM77.8694 24.096C77.0854 24.096 76.4734 23.796 76.0334 23.196C75.5934 22.596 75.3734 21.804 75.3734 20.82C75.3734 19.82 75.5934 19.02 76.0334 18.42C76.4814 17.812 77.1054 17.508 77.9054 17.508C78.4414 17.508 78.8614 17.632 79.1654 17.88C79.4694 18.12 79.6854 18.376 79.8134 18.648H79.9094V17.664H81.5774V24H79.9094V22.908H79.8134C79.6694 23.204 79.4454 23.476 79.1414 23.724C78.8374 23.972 78.4134 24.096 77.8694 24.096ZM78.4814 22.752C78.9534 22.752 79.3094 22.56 79.5494 22.176C79.7894 21.792 79.9094 21.332 79.9094 20.796C79.9094 20.26 79.7894 19.804 79.5494 19.428C79.3174 19.052 78.9614 18.864 78.4814 18.864C78.0014 18.864 77.6454 19.052 77.4134 19.428C77.1814 19.804 77.0654 20.26 77.0654 20.796C77.0654 21.34 77.1814 21.804 77.4134 22.188C77.6454 22.564 78.0014 22.752 78.4814 22.752ZM83.0797 17.664H84.7237V18.672H84.8077C84.9117 18.392 85.1037 18.156 85.3837 17.964C85.6637 17.764 86.0237 17.664 86.4637 17.664C86.6317 17.664 86.7757 17.68 86.8957 17.712L86.8237 19.236C86.6237 19.18 86.4117 19.152 86.1877 19.152C85.6917 19.152 85.3237 19.284 85.0837 19.548C84.8437 19.804 84.7237 20.232 84.7237 20.832V24H83.0797V17.664ZM88.0166 17.664H89.6726V24H88.0166V17.664ZM88.8326 16.572C88.5686 16.572 88.3486 16.484 88.1726 16.308C87.9966 16.124 87.9086 15.904 87.9086 15.648C87.9086 15.384 87.9966 15.164 88.1726 14.988C88.3486 14.812 88.5686 14.724 88.8326 14.724C89.0966 14.724 89.3166 14.816 89.4926 15C89.6686 15.176 89.7566 15.392 89.7566 15.648C89.7566 15.904 89.6686 16.124 89.4926 16.308C89.3166 16.484 89.0966 16.572 88.8326 16.572ZM93.4788 24.096C92.6948 24.096 92.0828 23.796 91.6428 23.196C91.2028 22.596 90.9828 21.804 90.9828 20.82C90.9828 19.82 91.2028 19.02 91.6428 18.42C92.0908 17.812 92.7148 17.508 93.5148 17.508C94.0508 17.508 94.4708 17.632 94.7748 17.88C95.0788 18.12 95.2948 18.376 95.4228 18.648H95.5188V17.664H97.1868V24H95.5188V22.908H95.4228C95.2788 23.204 95.0548 23.476 94.7508 23.724C94.4468 23.972 94.0228 24.096 93.4788 24.096ZM94.0908 22.752C94.5628 22.752 94.9188 22.56 95.1588 22.176C95.3988 21.792 95.5188 21.332 95.5188 20.796C95.5188 20.26 95.3988 19.804 95.1588 19.428C94.9268 19.052 94.5708 18.864 94.0908 18.864C93.6108 18.864 93.2548 19.052 93.0228 19.428C92.7908 19.804 92.6748 20.26 92.6748 20.796C92.6748 21.34 92.7908 21.804 93.0228 22.188C93.2548 22.564 93.6108 22.752 94.0908 22.752ZM98.641 17.664H100.321V18.636H100.405C100.549 18.324 100.781 18.06 101.101 17.844C101.421 17.62 101.809 17.508 102.265 17.508C103.089 17.508 103.669 17.772 104.005 18.3C104.349 18.828 104.521 19.428 104.521 20.1V24H102.865V20.376C102.865 19.912 102.753 19.548 102.529 19.284C102.313 19.02 102.005 18.888 101.605 18.888C101.181 18.888 100.861 19.028 100.645 19.308C100.429 19.58 100.321 19.936 100.321 20.376V24H98.641V17.664Z" fill="black"/>
<path d="M49.86 173.21H48.61V176H47.75V169H50.13C50.6967 169 51.16 169.103 51.52 169.31C51.8867 169.517 52.15 169.78 52.31 170.1C52.47 170.42 52.55 170.757 52.55 171.11C52.55 171.597 52.4033 172.033 52.11 172.42C51.8233 172.807 51.3733 173.053 50.76 173.16L52.61 176H51.66L49.86 173.21ZM48.61 172.47H50.02C50.4933 172.47 50.8933 172.367 51.22 172.16C51.5467 171.953 51.71 171.603 51.71 171.11C51.71 170.623 51.5467 170.28 51.22 170.08C50.8933 169.88 50.4933 169.78 50.02 169.78H48.61V172.47ZM55.7347 176.07C55.268 176.07 54.868 175.95 54.5347 175.71C54.208 175.47 53.958 175.143 53.7847 174.73C53.6114 174.317 53.5247 173.85 53.5247 173.33C53.5247 172.81 53.6114 172.343 53.7847 171.93C53.9647 171.51 54.2214 171.183 54.5547 170.95C54.8947 170.71 55.298 170.59 55.7647 170.59C56.2314 170.59 56.608 170.7 56.8947 170.92C57.1814 171.14 57.398 171.403 57.5447 171.71H57.6147V170.73H58.4847V176H57.6147V174.92H57.5447C57.3847 175.233 57.158 175.503 56.8647 175.73C56.5714 175.957 56.1947 176.07 55.7347 176.07ZM56.0047 175.33C56.518 175.33 56.9114 175.14 57.1847 174.76C57.458 174.373 57.5947 173.897 57.5947 173.33C57.5947 172.763 57.458 172.29 57.1847 171.91C56.9114 171.523 56.518 171.33 56.0047 171.33C55.478 171.33 55.078 171.52 54.8047 171.9C54.538 172.28 54.4047 172.753 54.4047 173.32C54.4047 173.893 54.538 174.373 54.8047 174.76C55.078 175.14 55.478 175.33 56.0047 175.33ZM61.4452 171.42V174.48C61.4452 174.727 61.4552 174.91 61.4752 175.03C61.5018 175.143 61.5652 175.233 61.6652 175.3C61.7718 175.367 61.9418 175.4 62.1752 175.4C62.3352 175.4 62.5085 175.377 62.6952 175.33V175.95C62.6485 175.97 62.5452 175.99 62.3852 176.01C62.2318 176.03 62.0718 176.04 61.9052 176.04C61.5185 176.04 61.2285 175.987 61.0352 175.88C60.8485 175.767 60.7252 175.617 60.6652 175.43C60.6118 175.237 60.5852 174.983 60.5852 174.67V171.42H59.6052V170.73H60.5852V169H61.4452V170.73H62.6952V171.42H61.4452ZM65.8909 176.07C65.4243 176.07 65.0243 175.95 64.6909 175.71C64.3643 175.47 64.1143 175.143 63.9409 174.73C63.7676 174.317 63.6809 173.85 63.6809 173.33C63.6809 172.81 63.7676 172.343 63.9409 171.93C64.1209 171.51 64.3776 171.183 64.7109 170.95C65.0509 170.71 65.4543 170.59 65.9209 170.59C66.3876 170.59 66.7643 170.7 67.0509 170.92C67.3376 171.14 67.5543 171.403 67.7009 171.71H67.7709V170.73H68.6409V176H67.7709V174.92H67.7009C67.5409 175.233 67.3143 175.503 67.0209 175.73C66.7276 175.957 66.3509 176.07 65.8909 176.07ZM66.1609 175.33C66.6743 175.33 67.0676 175.14 67.3409 174.76C67.6143 174.373 67.7509 173.897 67.7509 173.33C67.7509 172.763 67.6143 172.29 67.3409 171.91C67.0676 171.523 66.6743 171.33 66.1609 171.33C65.6343 171.33 65.2343 171.52 64.9609 171.9C64.6943 172.28 64.5609 172.753 64.5609 173.32C64.5609 173.893 64.6943 174.373 64.9609 174.76C65.2343 175.14 65.6343 175.33 66.1609 175.33ZM70.5821 172.52H74.2521V173.23H70.5821V172.52ZM76.128 170.73H76.988V171.57H77.048C77.1346 171.337 77.288 171.14 77.508 170.98C77.7346 170.813 78.018 170.73 78.358 170.73C78.4646 170.73 78.548 170.737 78.608 170.75C78.6746 170.757 78.748 170.773 78.828 170.8L78.798 171.64C78.6913 171.607 78.598 171.583 78.518 171.57C78.4446 171.557 78.348 171.55 78.228 171.55C77.4013 171.55 76.988 172.04 76.988 173.02V176H76.128V170.73ZM81.555 176.07C81.0883 176.07 80.6883 175.95 80.355 175.71C80.0283 175.47 79.7783 175.143 79.605 174.73C79.4317 174.317 79.345 173.85 79.345 173.33C79.345 172.81 79.4317 172.343 79.605 171.93C79.785 171.51 80.0417 171.183 80.375 170.95C80.715 170.71 81.1183 170.59 81.585 170.59C82.0517 170.59 82.4283 170.7 82.715 170.92C83.0017 171.14 83.2183 171.403 83.365 171.71H83.435V170.73H84.305V176H83.435V174.92H83.365C83.205 175.233 82.9783 175.503 82.685 175.73C82.3917 175.957 82.015 176.07 81.555 176.07ZM81.825 175.33C82.3383 175.33 82.7317 175.14 83.005 174.76C83.2783 174.373 83.415 173.897 83.415 173.33C83.415 172.763 83.2783 172.29 83.005 171.91C82.7317 171.523 82.3383 171.33 81.825 171.33C81.2983 171.33 80.8983 171.52 80.625 171.9C80.3583 172.28 80.225 172.753 80.225 173.32C80.225 173.893 80.3583 174.373 80.625 174.76C80.8983 175.14 81.2983 175.33 81.825 175.33ZM87.2655 171.42V174.48C87.2655 174.727 87.2755 174.91 87.2955 175.03C87.3221 175.143 87.3855 175.233 87.4855 175.3C87.5921 175.367 87.7621 175.4 87.9955 175.4C88.1555 175.4 88.3288 175.377 88.5155 175.33V175.95C88.4688 175.97 88.3655 175.99 88.2055 176.01C88.0521 176.03 87.8921 176.04 87.7255 176.04C87.3388 176.04 87.0488 175.987 86.8555 175.88C86.6688 175.767 86.5455 175.617 86.4855 175.43C86.4321 175.237 86.4055 174.983 86.4055 174.67V171.42H85.4255V170.73H86.4055V169H87.2655V170.73H88.5155V171.42H87.2655ZM91.7113 176.07C91.2446 176.07 90.8446 175.95 90.5113 175.71C90.1846 175.47 89.9346 175.143 89.7613 174.73C89.5879 174.317 89.5013 173.85 89.5013 173.33C89.5013 172.81 89.5879 172.343 89.7613 171.93C89.9413 171.51 90.1979 171.183 90.5313 170.95C90.8713 170.71 91.2746 170.59 91.7413 170.59C92.2079 170.59 92.5846 170.7 92.8713 170.92C93.1579 171.14 93.3746 171.403 93.5213 171.71H93.5913V170.73H94.4613V176H93.5913V174.92H93.5213C93.3613 175.233 93.1346 175.503 92.8413 175.73C92.5479 175.957 92.1713 176.07 91.7113 176.07ZM91.9813 175.33C92.4946 175.33 92.8879 175.14 93.1613 174.76C93.4346 174.373 93.5713 173.897 93.5713 173.33C93.5713 172.763 93.4346 172.29 93.1613 171.91C92.8879 171.523 92.4946 171.33 91.9813 171.33C91.4546 171.33 91.0546 171.52 90.7813 171.9C90.5146 172.28 90.3813 172.753 90.3813 173.32C90.3813 173.893 90.5146 174.373 90.7813 174.76C91.0546 175.14 91.4546 175.33 91.9813 175.33ZM101.027 176.07C100.567 176.07 100.19 175.957 99.8971 175.73C99.6038 175.503 99.3771 175.233 99.2171 174.92H99.1471V178.03H98.2771V170.73H99.1471V171.71H99.2171C99.3638 171.403 99.5804 171.14 99.8671 170.92C100.154 170.7 100.53 170.59 100.997 170.59C101.47 170.59 101.874 170.71 102.207 170.95C102.547 171.183 102.804 171.51 102.977 171.93C103.15 172.343 103.237 172.81 103.237 173.33C103.237 173.85 103.15 174.317 102.977 174.73C102.804 175.143 102.55 175.47 102.217 175.71C101.884 175.95 101.487 176.07 101.027 176.07ZM100.757 175.33C101.277 175.33 101.67 175.14 101.937 174.76C102.21 174.38 102.347 173.903 102.347 173.33C102.347 172.763 102.214 172.29 101.947 171.91C101.68 171.53 101.284 171.34 100.757 171.34C100.237 171.34 99.8404 171.53 99.5671 171.91C99.3004 172.29 99.1671 172.763 99.1671 173.33C99.1671 173.897 99.3038 174.373 99.5771 174.76C99.8504 175.14 100.244 175.33 100.757 175.33ZM104.468 170.73H105.328V171.57H105.388C105.474 171.337 105.628 171.14 105.848 170.98C106.074 170.813 106.358 170.73 106.698 170.73C106.804 170.73 106.888 170.737 106.948 170.75C107.014 170.757 107.088 170.773 107.168 170.8L107.138 171.64C107.031 171.607 106.938 171.583 106.858 171.57C106.784 171.557 106.688 171.55 106.568 171.55C105.741 171.55 105.328 172.04 105.328 173.02V176H104.468V170.73ZM110.195 176.07C109.662 176.07 109.208 175.943 108.835 175.69C108.468 175.43 108.192 175.093 108.005 174.68C107.818 174.26 107.725 173.81 107.725 173.33C107.725 172.85 107.818 172.403 108.005 171.99C108.192 171.57 108.468 171.233 108.835 170.98C109.208 170.72 109.662 170.59 110.195 170.59C110.728 170.59 111.178 170.72 111.545 170.98C111.918 171.233 112.195 171.57 112.375 171.99C112.562 172.41 112.655 172.857 112.655 173.33C112.655 173.803 112.562 174.25 112.375 174.67C112.188 175.09 111.908 175.43 111.535 175.69C111.168 175.943 110.722 176.07 110.195 176.07ZM110.195 175.33C110.522 175.33 110.805 175.24 111.045 175.06C111.292 174.88 111.478 174.64 111.605 174.34C111.732 174.033 111.795 173.693 111.795 173.32C111.795 172.747 111.652 172.27 111.365 171.89C111.078 171.51 110.688 171.32 110.195 171.32C109.862 171.32 109.572 171.41 109.325 171.59C109.085 171.77 108.902 172.013 108.775 172.32C108.648 172.62 108.585 172.953 108.585 173.32C108.585 173.893 108.728 174.373 109.015 174.76C109.302 175.14 109.695 175.33 110.195 175.33ZM115.862 176.07C115.395 176.07 114.995 175.95 114.662 175.71C114.335 175.47 114.085 175.143 113.912 174.73C113.739 174.317 113.652 173.85 113.652 173.33C113.652 172.803 113.739 172.333 113.912 171.92C114.085 171.507 114.339 171.183 114.672 170.95C115.005 170.71 115.409 170.59 115.882 170.59C116.349 170.59 116.725 170.703 117.012 170.93C117.305 171.15 117.522 171.41 117.662 171.71H117.742V168.5H118.602V176H117.742V174.92H117.662C117.502 175.24 117.275 175.513 116.982 175.74C116.695 175.96 116.322 176.07 115.862 176.07ZM116.122 175.33C116.642 175.33 117.039 175.14 117.312 174.76C117.585 174.373 117.722 173.897 117.722 173.33C117.722 172.763 117.585 172.29 117.312 171.91C117.039 171.53 116.642 171.34 116.122 171.34C115.595 171.34 115.199 171.53 114.932 171.91C114.665 172.29 114.532 172.763 114.532 173.33C114.532 173.903 114.665 174.38 114.932 174.76C115.205 175.14 115.602 175.33 116.122 175.33ZM124.694 176H123.824V175H123.764C123.624 175.307 123.407 175.567 123.114 175.78C122.827 175.987 122.474 176.09 122.054 176.09C121.614 176.09 121.247 175.983 120.954 175.77C120.66 175.557 120.444 175.28 120.304 174.94C120.17 174.6 120.104 174.23 120.104 173.83V170.73H120.964V173.72C120.964 174.233 121.094 174.63 121.354 174.91C121.614 175.183 121.954 175.32 122.374 175.32C122.814 175.32 123.164 175.173 123.424 174.88C123.69 174.58 123.824 174.193 123.824 173.72V170.73H124.694V176ZM126.178 168.53H127.048V172.73H127.088L129.088 170.73H130.068L127.738 173.1L130.168 176H129.178L127.088 173.43H127.048V176H126.178V168.53ZM132.831 176.07C132.405 176.07 132.035 175.987 131.721 175.82C131.408 175.647 131.168 175.427 131.001 175.16C130.841 174.893 130.761 174.613 130.761 174.32V174.27H131.621V174.31C131.621 174.477 131.668 174.643 131.761 174.81C131.855 174.97 131.995 175.103 132.181 175.21C132.368 175.31 132.595 175.36 132.861 175.36C133.181 175.36 133.445 175.283 133.651 175.13C133.865 174.97 133.971 174.753 133.971 174.48C133.971 174.253 133.888 174.073 133.721 173.94C133.561 173.807 133.358 173.72 133.111 173.68L132.421 173.58C131.988 173.513 131.625 173.367 131.331 173.14C131.038 172.907 130.891 172.57 130.891 172.13C130.891 171.643 131.065 171.267 131.411 171C131.765 170.727 132.215 170.59 132.761 170.59C133.168 170.59 133.515 170.667 133.801 170.82C134.095 170.967 134.318 171.163 134.471 171.41C134.625 171.65 134.701 171.913 134.701 172.2V172.24H133.841V172.22C133.841 172.087 133.805 171.947 133.731 171.8C133.665 171.653 133.548 171.527 133.381 171.42C133.215 171.313 133.001 171.26 132.741 171.26C132.421 171.26 132.165 171.34 131.971 171.5C131.778 171.653 131.681 171.857 131.681 172.11C131.681 172.317 131.758 172.487 131.911 172.62C132.065 172.753 132.258 172.84 132.491 172.88L133.241 173C133.681 173.073 134.051 173.227 134.351 173.46C134.651 173.687 134.801 174.023 134.801 174.47C134.801 174.79 134.715 175.07 134.541 175.31C134.375 175.55 134.141 175.737 133.841 175.87C133.541 176.003 133.205 176.07 132.831 176.07ZM136.062 170.73H136.922V176H136.062V170.73ZM136.482 169.75C136.322 169.75 136.189 169.697 136.082 169.59C135.976 169.477 135.922 169.343 135.922 169.19C135.922 169.037 135.976 168.907 136.082 168.8C136.189 168.687 136.322 168.63 136.482 168.63C136.642 168.63 136.776 168.687 136.882 168.8C136.996 168.907 137.052 169.037 137.052 169.19C137.052 169.343 136.996 169.477 136.882 169.59C136.776 169.697 136.642 169.75 136.482 169.75ZM143.157 178.11C142.957 178.11 142.794 178.097 142.667 178.07C142.547 178.043 142.424 178.007 142.297 177.96V177.24C142.384 177.267 142.5 177.29 142.647 177.31C142.794 177.337 142.937 177.35 143.077 177.35C143.597 177.35 143.987 177.203 144.247 176.91C144.514 176.617 144.647 176.227 144.647 175.74V174.79H144.567C144.427 175.103 144.2 175.37 143.887 175.59C143.58 175.803 143.207 175.91 142.767 175.91C142.327 175.91 141.94 175.797 141.607 175.57C141.274 175.343 141.014 175.03 140.827 174.63C140.647 174.223 140.557 173.76 140.557 173.24C140.557 172.72 140.647 172.26 140.827 171.86C141.014 171.453 141.274 171.137 141.607 170.91C141.94 170.683 142.327 170.57 142.767 170.57C143.227 170.57 143.61 170.69 143.917 170.93C144.23 171.163 144.45 171.437 144.577 171.75H144.647V170.74H145.517V175.74C145.517 176.113 145.44 176.48 145.287 176.84C145.14 177.2 144.89 177.5 144.537 177.74C144.184 177.987 143.724 178.11 143.157 178.11ZM143.047 175.17C143.387 175.17 143.677 175.08 143.917 174.9C144.157 174.713 144.334 174.473 144.447 174.18C144.567 173.88 144.627 173.56 144.627 173.22C144.627 172.887 144.567 172.577 144.447 172.29C144.334 172.003 144.157 171.77 143.917 171.59C143.684 171.41 143.394 171.32 143.047 171.32C142.534 171.32 142.14 171.507 141.867 171.88C141.6 172.247 141.467 172.693 141.467 173.22C141.467 173.567 141.524 173.89 141.637 174.19C141.757 174.483 141.934 174.72 142.167 174.9C142.407 175.08 142.7 175.17 143.047 175.17ZM149.016 176.07C148.549 176.07 148.149 175.95 147.816 175.71C147.489 175.47 147.239 175.143 147.066 174.73C146.893 174.317 146.806 173.85 146.806 173.33C146.806 172.81 146.893 172.343 147.066 171.93C147.246 171.51 147.503 171.183 147.836 170.95C148.176 170.71 148.579 170.59 149.046 170.59C149.513 170.59 149.889 170.7 150.176 170.92C150.463 171.14 150.679 171.403 150.826 171.71H150.896V170.73H151.766V176H150.896V174.92H150.826C150.666 175.233 150.439 175.503 150.146 175.73C149.853 175.957 149.476 176.07 149.016 176.07ZM149.286 175.33C149.799 175.33 150.193 175.14 150.466 174.76C150.739 174.373 150.876 173.897 150.876 173.33C150.876 172.763 150.739 172.29 150.466 171.91C150.193 171.523 149.799 171.33 149.286 171.33C148.759 171.33 148.359 171.52 148.086 171.9C147.819 172.28 147.686 172.753 147.686 173.32C147.686 173.893 147.819 174.373 148.086 174.76C148.359 175.14 148.759 175.33 149.286 175.33ZM155.087 176.07C154.66 176.07 154.29 175.987 153.977 175.82C153.664 175.647 153.424 175.427 153.257 175.16C153.097 174.893 153.017 174.613 153.017 174.32V174.27H153.877V174.31C153.877 174.477 153.924 174.643 154.017 174.81C154.11 174.97 154.25 175.103 154.437 175.21C154.624 175.31 154.85 175.36 155.117 175.36C155.437 175.36 155.7 175.283 155.907 175.13C156.12 174.97 156.227 174.753 156.227 174.48C156.227 174.253 156.144 174.073 155.977 173.94C155.817 173.807 155.614 173.72 155.367 173.68L154.677 173.58C154.244 173.513 153.88 173.367 153.587 173.14C153.294 172.907 153.147 172.57 153.147 172.13C153.147 171.643 153.32 171.267 153.667 171C154.02 170.727 154.47 170.59 155.017 170.59C155.424 170.59 155.77 170.667 156.057 170.82C156.35 170.967 156.574 171.163 156.727 171.41C156.88 171.65 156.957 171.913 156.957 172.2V172.24H156.097V172.22C156.097 172.087 156.06 171.947 155.987 171.8C155.92 171.653 155.804 171.527 155.637 171.42C155.47 171.313 155.257 171.26 154.997 171.26C154.677 171.26 154.42 171.34 154.227 171.5C154.034 171.653 153.937 171.857 153.937 172.11C153.937 172.317 154.014 172.487 154.167 172.62C154.32 172.753 154.514 172.84 154.747 172.88L155.497 173C155.937 173.073 156.307 173.227 156.607 173.46C156.907 173.687 157.057 174.023 157.057 174.47C157.057 174.79 156.97 175.07 156.797 175.31C156.63 175.55 156.397 175.737 156.097 175.87C155.797 176.003 155.46 176.07 155.087 176.07ZM158.798 176.07C158.631 176.07 158.491 176.013 158.378 175.9C158.271 175.78 158.218 175.64 158.218 175.48C158.218 175.32 158.271 175.187 158.378 175.08C158.491 174.967 158.631 174.91 158.798 174.91C158.965 174.91 159.101 174.967 159.208 175.08C159.321 175.187 159.378 175.32 159.378 175.48C159.378 175.64 159.321 175.78 159.208 175.9C159.095 176.013 158.958 176.07 158.798 176.07ZM158.798 171.94C158.631 171.94 158.491 171.883 158.378 171.77C158.271 171.65 158.218 171.51 158.218 171.35C158.218 171.19 158.271 171.057 158.378 170.95C158.491 170.837 158.631 170.78 158.798 170.78C158.965 170.78 159.101 170.837 159.208 170.95C159.321 171.057 159.378 171.19 159.378 171.35C159.378 171.51 159.321 171.65 159.208 171.77C159.095 171.883 158.958 171.94 158.798 171.94ZM163.442 175.25L165.122 173.74L165.302 173.59C165.729 173.217 166.062 172.91 166.302 172.67C166.549 172.423 166.752 172.157 166.912 171.87C167.079 171.583 167.162 171.283 167.162 170.97C167.162 170.59 167.046 170.27 166.812 170.01C166.586 169.743 166.239 169.61 165.772 169.61C165.219 169.61 164.842 169.767 164.642 170.08C164.442 170.387 164.342 170.727 164.342 171.1V171.17H163.492C163.492 170.77 163.569 170.397 163.722 170.05C163.876 169.697 164.122 169.41 164.462 169.19C164.809 168.963 165.246 168.85 165.772 168.85C166.272 168.85 166.689 168.95 167.022 169.15C167.356 169.343 167.599 169.6 167.752 169.92C167.912 170.233 167.992 170.573 167.992 170.94C167.992 171.347 167.902 171.723 167.722 172.07C167.542 172.41 167.322 172.717 167.062 172.99C166.802 173.257 166.446 173.587 165.992 173.98L164.622 175.18V175.23H168.062V176H163.442V175.25ZM171.602 176.1C170.762 176.1 170.132 175.813 169.712 175.24C169.299 174.66 169.092 173.91 169.092 172.99V171.95C169.092 171.03 169.299 170.287 169.712 169.72C170.132 169.147 170.762 168.86 171.602 168.86C172.442 168.86 173.069 169.147 173.482 169.72C173.895 170.287 174.102 171.03 174.102 171.95V172.99C174.102 173.91 173.892 174.66 173.472 175.24C173.059 175.813 172.435 176.1 171.602 176.1ZM171.602 175.34C172.109 175.34 172.495 175.14 172.762 174.74C173.035 174.34 173.172 173.747 173.172 172.96V171.99C173.172 171.203 173.039 170.613 172.772 170.22C172.505 169.82 172.115 169.62 171.602 169.62C171.089 169.62 170.695 169.82 170.422 170.22C170.155 170.613 170.022 171.203 170.022 171.99V172.96C170.022 173.747 170.155 174.34 170.422 174.74C170.695 175.14 171.089 175.34 171.602 175.34ZM177.686 176.1C176.846 176.1 176.216 175.813 175.796 175.24C175.383 174.66 175.176 173.91 175.176 172.99V171.95C175.176 171.03 175.383 170.287 175.796 169.72C176.216 169.147 176.846 168.86 177.686 168.86C178.526 168.86 179.153 169.147 179.566 169.72C179.979 170.287 180.186 171.03 180.186 171.95V172.99C180.186 173.91 179.976 174.66 179.556 175.24C179.143 175.813 178.519 176.1 177.686 176.1ZM177.686 175.34C178.193 175.34 178.579 175.14 178.846 174.74C179.119 174.34 179.256 173.747 179.256 172.96V171.99C179.256 171.203 179.123 170.613 178.856 170.22C178.589 169.82 178.199 169.62 177.686 169.62C177.173 169.62 176.779 169.82 176.506 170.22C176.239 170.613 176.106 171.203 176.106 171.99V172.96C176.106 173.747 176.239 174.34 176.506 174.74C176.779 175.14 177.173 175.34 177.686 175.34ZM184.721 167.97H185.561L182.101 177.56H181.261L184.721 167.97ZM188.873 168.53H189.733V171.68H189.813C189.946 171.373 190.163 171.117 190.463 170.91C190.763 170.697 191.13 170.59 191.563 170.59C192.01 170.59 192.383 170.697 192.683 170.91C192.983 171.117 193.203 171.393 193.343 171.74C193.49 172.08 193.563 172.45 193.563 172.85V176H192.703V172.96C192.703 172.44 192.566 172.043 192.293 171.77C192.026 171.497 191.67 171.36 191.223 171.36C190.796 171.36 190.44 171.503 190.153 171.79C189.873 172.077 189.733 172.467 189.733 172.96V176H188.873V168.53ZM196.955 176.07C196.489 176.07 196.089 175.95 195.755 175.71C195.429 175.47 195.179 175.143 195.005 174.73C194.832 174.317 194.745 173.85 194.745 173.33C194.745 172.81 194.832 172.343 195.005 171.93C195.185 171.51 195.442 171.183 195.775 170.95C196.115 170.71 196.519 170.59 196.985 170.59C197.452 170.59 197.829 170.7 198.115 170.92C198.402 171.14 198.619 171.403 198.765 171.71H198.835V170.73H199.705V176H198.835V174.92H198.765C198.605 175.233 198.379 175.503 198.085 175.73C197.792 175.957 197.415 176.07 196.955 176.07ZM197.225 175.33C197.739 175.33 198.132 175.14 198.405 174.76C198.679 174.373 198.815 173.897 198.815 173.33C198.815 172.763 198.679 172.29 198.405 171.91C198.132 171.523 197.739 171.33 197.225 171.33C196.699 171.33 196.299 171.52 196.025 171.9C195.759 172.28 195.625 172.753 195.625 173.32C195.625 173.893 195.759 174.373 196.025 174.76C196.299 175.14 196.699 175.33 197.225 175.33ZM201.187 170.73H202.047V171.57H202.107C202.193 171.337 202.347 171.14 202.567 170.98C202.793 170.813 203.077 170.73 203.417 170.73C203.523 170.73 203.607 170.737 203.667 170.75C203.733 170.757 203.807 170.773 203.887 170.8L203.857 171.64C203.75 171.607 203.657 171.583 203.577 171.57C203.503 171.557 203.407 171.55 203.287 171.55C202.46 171.55 202.047 172.04 202.047 173.02V176H201.187V170.73ZM204.988 170.73H205.848V176H204.988V170.73ZM205.408 169.75C205.248 169.75 205.115 169.697 205.008 169.59C204.901 169.477 204.848 169.343 204.848 169.19C204.848 169.037 204.901 168.907 205.008 168.8C205.115 168.687 205.248 168.63 205.408 168.63C205.568 168.63 205.701 168.687 205.808 168.8C205.921 168.907 205.978 169.037 205.978 169.19C205.978 169.343 205.921 169.477 205.808 169.59C205.701 169.697 205.568 169.75 205.408 169.75Z" fill="black"/>
<line x1="54.1504" y1="59.5603" x2="54.1504" y2="142.786" stroke="#253900"/>
<line x1="53.6504" y1="142.286" x2="220" y2="142.286" stroke="#253900"/>
<path d="M46.4857 141.461C46.4857 141.038 46.5288 140.697 46.6151 140.44C46.703 140.181 46.8323 139.982 47.0032 139.842C47.1758 139.702 47.3922 139.632 47.6527 139.632C47.8447 139.632 48.0132 139.671 48.158 139.749C48.3029 139.826 48.4225 139.937 48.5169 140.084C48.6113 140.229 48.6854 140.406 48.7391 140.616C48.7928 140.824 48.8197 141.106 48.8197 141.461C48.8197 141.881 48.7765 142.22 48.6903 142.479C48.604 142.736 48.4746 142.935 48.3021 143.077C48.1312 143.217 47.9147 143.287 47.6527 143.287C47.3076 143.287 47.0366 143.163 46.8397 142.916C46.6037 142.618 46.4857 142.133 46.4857 141.461ZM46.9373 141.461C46.9373 142.048 47.0057 142.44 47.1424 142.635C47.2808 142.829 47.4508 142.926 47.6527 142.926C47.8545 142.926 48.0238 142.828 48.1605 142.633C48.2988 142.437 48.368 142.047 48.368 141.461C48.368 140.872 48.2988 140.48 48.1605 140.286C48.0238 140.093 47.8529 139.996 47.6478 139.996C47.446 139.996 47.2848 140.081 47.1644 140.252C47.013 140.47 46.9373 140.873 46.9373 141.461Z" fill="black"/>
<path d="M78.1383 150.578V151H75.7726C75.7693 150.894 75.7864 150.792 75.8239 150.695C75.8841 150.534 75.9801 150.375 76.112 150.219C76.2454 150.062 76.4375 149.882 76.6881 149.677C77.0771 149.358 77.34 149.105 77.4767 148.92C77.6134 148.733 77.6818 148.556 77.6818 148.39C77.6818 148.216 77.6191 148.069 77.4938 147.951C77.3701 147.83 77.2081 147.77 77.0079 147.77C76.7964 147.77 76.6271 147.833 76.5001 147.96C76.3732 148.087 76.3089 148.263 76.3073 148.488L75.8556 148.441C75.8865 148.104 76.0029 147.848 76.2047 147.672C76.4065 147.495 76.6775 147.406 77.0177 147.406C77.3611 147.406 77.6329 147.501 77.8331 147.692C78.0333 147.882 78.1334 148.118 78.1334 148.4C78.1334 148.543 78.1041 148.684 78.0455 148.822C77.987 148.961 77.8893 149.106 77.7526 149.259C77.6175 149.412 77.3921 149.622 77.0763 149.889C76.8126 150.111 76.6434 150.261 76.5685 150.341C76.4936 150.419 76.4318 150.498 76.3829 150.578H78.1383ZM80.9215 150.578V151H78.5558C78.5525 150.894 78.5696 150.792 78.6071 150.695C78.6673 150.534 78.7633 150.375 78.8952 150.219C79.0286 150.062 79.2207 149.882 79.4713 149.677C79.8603 149.358 80.1232 149.105 80.2599 148.92C80.3966 148.733 80.465 148.556 80.465 148.39C80.465 148.216 80.4023 148.069 80.277 147.951C80.1533 147.83 79.9913 147.77 79.7912 147.77C79.5796 147.77 79.4103 147.833 79.2833 147.96C79.1564 148.087 79.0921 148.263 79.0905 148.488L78.6388 148.441C78.6697 148.104 78.7861 147.848 78.9879 147.672C79.1898 147.495 79.4607 147.406 79.8009 147.406C80.1443 147.406 80.4162 147.501 80.6163 147.692C80.8165 147.882 80.9166 148.118 80.9166 148.4C80.9166 148.543 80.8873 148.684 80.8287 148.822C80.7702 148.961 80.6725 149.106 80.5358 149.259C80.4007 149.412 80.1753 149.622 79.8595 149.889C79.5958 150.111 79.4266 150.261 79.3517 150.341C79.2768 150.419 79.215 150.498 79.1662 150.578H80.9215ZM81.1876 151.061L82.2252 147.36H82.5768L81.5416 151.061H81.1876ZM82.7868 149.235C82.7868 148.812 82.8299 148.472 82.9162 148.214C83.004 147.956 83.1334 147.756 83.3043 147.616C83.4769 147.476 83.6933 147.406 83.9537 147.406C84.1458 147.406 84.3143 147.445 84.4591 147.523C84.604 147.6 84.7236 147.711 84.818 147.858C84.9124 148.003 84.9865 148.18 85.0402 148.39C85.0939 148.598 85.1207 148.88 85.1207 149.235C85.1207 149.655 85.0776 149.994 84.9913 150.253C84.9051 150.51 84.7757 150.709 84.6032 150.851C84.4323 150.991 84.2158 151.061 83.9537 151.061C83.6087 151.061 83.3377 150.937 83.1408 150.69C82.9048 150.392 82.7868 149.907 82.7868 149.235ZM83.2384 149.235C83.2384 149.822 83.3068 150.214 83.4435 150.409C83.5818 150.603 83.7519 150.7 83.9537 150.7C84.1556 150.7 84.3248 150.602 84.4616 150.407C84.5999 150.211 84.6691 149.821 84.6691 149.235C84.6691 148.646 84.5999 148.254 84.4616 148.061C84.3248 147.867 84.1539 147.77 83.9489 147.77C83.747 147.77 83.5859 147.855 83.4655 148.026C83.3141 148.244 83.2384 148.647 83.2384 149.235ZM85.6359 150.172L86.0582 150.133C86.094 150.332 86.1624 150.476 86.2633 150.565C86.3642 150.655 86.4936 150.7 86.6515 150.7C86.7866 150.7 86.9046 150.669 87.0055 150.607C87.108 150.545 87.1919 150.463 87.257 150.36C87.3221 150.256 87.3766 150.116 87.4205 149.94C87.4645 149.765 87.4865 149.586 87.4865 149.403C87.4865 149.384 87.4856 149.354 87.484 149.315C87.3961 149.455 87.2757 149.569 87.1227 149.657C86.9713 149.743 86.8069 149.787 86.6295 149.787C86.3333 149.787 86.0827 149.679 85.8776 149.464C85.6725 149.25 85.57 148.966 85.57 148.615C85.57 148.252 85.6766 147.96 85.8898 147.738C86.1046 147.517 86.3732 147.406 86.6954 147.406C86.9282 147.406 87.1406 147.469 87.3327 147.594C87.5263 147.72 87.6728 147.899 87.7721 148.131C87.873 148.362 87.9235 148.698 87.9235 149.137C87.9235 149.595 87.8738 149.959 87.7745 150.231C87.6753 150.501 87.5272 150.707 87.3302 150.849C87.1349 150.99 86.9054 151.061 86.6417 151.061C86.3618 151.061 86.1331 150.984 85.9557 150.829C85.7783 150.673 85.6717 150.454 85.6359 150.172ZM87.4352 148.593C87.4352 148.34 87.3676 148.14 87.2326 147.992C87.0991 147.844 86.938 147.77 86.7492 147.77C86.5538 147.77 86.3838 147.85 86.2389 148.009C86.094 148.169 86.0216 148.375 86.0216 148.629C86.0216 148.857 86.09 149.043 86.2267 149.186C86.365 149.328 86.5351 149.398 86.737 149.398C86.9404 149.398 87.1072 149.328 87.2374 149.186C87.3693 149.043 87.4352 148.845 87.4352 148.593Z" fill="black"/>
<path d="M113.702 150.578V151H111.336C111.333 150.894 111.35 150.792 111.387 150.695C111.448 150.534 111.544 150.375 111.675 150.219C111.809 150.062 112.001 149.882 112.252 149.677C112.641 149.358 112.903 149.105 113.04 148.92C113.177 148.733 113.245 148.556 113.245 148.39C113.245 148.216 113.183 148.069 113.057 147.951C112.934 147.83 112.772 147.77 112.571 147.77C112.36 147.77 112.191 147.833 112.064 147.96C111.937 148.087 111.872 148.263 111.871 148.488L111.419 148.441C111.45 148.104 111.566 147.848 111.768 147.672C111.97 147.495 112.241 147.406 112.581 147.406C112.925 147.406 113.196 147.501 113.397 147.692C113.597 147.882 113.697 148.118 113.697 148.4C113.697 148.543 113.668 148.684 113.609 148.822C113.55 148.961 113.453 149.106 113.316 149.259C113.181 149.412 112.956 149.622 112.64 149.889C112.376 150.111 112.207 150.261 112.132 150.341C112.057 150.419 111.995 150.498 111.946 150.578H113.702ZM114.178 150.055L114.617 149.997C114.668 150.246 114.753 150.425 114.874 150.536C114.996 150.645 115.144 150.7 115.318 150.7C115.525 150.7 115.699 150.628 115.84 150.485C115.984 150.342 116.055 150.164 116.055 149.953C116.055 149.751 115.989 149.585 115.858 149.455C115.726 149.323 115.558 149.257 115.355 149.257C115.272 149.257 115.168 149.273 115.045 149.306L115.093 148.92C115.123 148.923 115.146 148.925 115.164 148.925C115.351 148.925 115.52 148.876 115.67 148.778C115.819 148.681 115.894 148.53 115.894 148.327C115.894 148.166 115.84 148.032 115.731 147.926C115.622 147.82 115.481 147.768 115.308 147.768C115.137 147.768 114.995 147.821 114.881 147.929C114.767 148.036 114.694 148.197 114.661 148.412L114.222 148.334C114.276 148.039 114.398 147.812 114.588 147.65C114.778 147.488 115.015 147.406 115.298 147.406C115.494 147.406 115.674 147.449 115.838 147.533C116.002 147.616 116.128 147.73 116.214 147.875C116.302 148.02 116.346 148.174 116.346 148.336C116.346 148.491 116.304 148.632 116.221 148.759C116.138 148.886 116.015 148.987 115.853 149.062C116.064 149.11 116.229 149.212 116.346 149.367C116.463 149.52 116.522 149.712 116.522 149.943C116.522 150.255 116.408 150.521 116.18 150.739C115.952 150.955 115.664 151.063 115.316 151.063C115.001 151.063 114.74 150.97 114.532 150.783C114.325 150.596 114.207 150.353 114.178 150.055ZM116.751 151.061L117.789 147.36H118.14L117.105 151.061H116.751ZM118.35 149.235C118.35 148.812 118.393 148.472 118.48 148.214C118.568 147.956 118.697 147.756 118.868 147.616C119.04 147.476 119.257 147.406 119.517 147.406C119.709 147.406 119.878 147.445 120.023 147.523C120.167 147.6 120.287 147.711 120.381 147.858C120.476 148.003 120.55 148.18 120.604 148.39C120.657 148.598 120.684 148.88 120.684 149.235C120.684 149.655 120.641 149.994 120.555 150.253C120.469 150.51 120.339 150.709 120.167 150.851C119.996 150.991 119.779 151.061 119.517 151.061C119.172 151.061 118.901 150.937 118.704 150.69C118.468 150.392 118.35 149.907 118.35 149.235ZM118.802 149.235C118.802 149.822 118.87 150.214 119.007 150.409C119.145 150.603 119.315 150.7 119.517 150.7C119.719 150.7 119.888 150.602 120.025 150.407C120.163 150.211 120.233 149.821 120.233 149.235C120.233 148.646 120.163 148.254 120.025 148.061C119.888 147.867 119.717 147.77 119.512 147.77C119.311 147.77 119.149 147.855 119.029 148.026C118.878 148.244 118.802 148.647 118.802 149.235ZM121.199 150.172L121.622 150.133C121.658 150.332 121.726 150.476 121.827 150.565C121.928 150.655 122.057 150.7 122.215 150.7C122.35 150.7 122.468 150.669 122.569 150.607C122.672 150.545 122.755 150.463 122.82 150.36C122.886 150.256 122.94 150.116 122.984 149.94C123.028 149.765 123.05 149.586 123.05 149.403C123.05 149.384 123.049 149.354 123.047 149.315C122.96 149.455 122.839 149.569 122.686 149.657C122.535 149.743 122.37 149.787 122.193 149.787C121.897 149.787 121.646 149.679 121.441 149.464C121.236 149.25 121.133 148.966 121.133 148.615C121.133 148.252 121.24 147.96 121.453 147.738C121.668 147.517 121.937 147.406 122.259 147.406C122.492 147.406 122.704 147.469 122.896 147.594C123.09 147.72 123.236 147.899 123.336 148.131C123.436 148.362 123.487 148.698 123.487 149.137C123.487 149.595 123.437 149.959 123.338 150.231C123.239 150.501 123.091 150.707 122.894 150.849C122.698 150.99 122.469 151.061 122.205 151.061C121.925 151.061 121.697 150.984 121.519 150.829C121.342 150.673 121.235 150.454 121.199 150.172ZM122.999 148.593C122.999 148.34 122.931 148.14 122.796 147.992C122.663 147.844 122.501 147.77 122.313 147.77C122.117 147.77 121.947 147.85 121.802 148.009C121.658 148.169 121.585 148.375 121.585 148.629C121.585 148.857 121.653 149.043 121.79 149.186C121.929 149.328 122.099 149.398 122.3 149.398C122.504 149.398 122.671 149.328 122.801 149.186C122.933 149.043 122.999 148.845 122.999 148.593Z" fill="black"/>
<path d="M149.267 150.578V151H146.902C146.898 150.894 146.915 150.792 146.953 150.695C147.013 150.534 147.109 150.375 147.241 150.219C147.374 150.062 147.566 149.882 147.817 149.677C148.206 149.358 148.469 149.105 148.606 148.92C148.742 148.733 148.811 148.556 148.811 148.39C148.811 148.216 148.748 148.069 148.623 147.951C148.499 147.83 148.337 147.77 148.137 147.77C147.925 147.77 147.756 147.833 147.629 147.96C147.502 148.087 147.438 148.263 147.436 148.488L146.985 148.441C147.015 148.104 147.132 147.848 147.334 147.672C147.535 147.495 147.806 147.406 148.147 147.406C148.49 147.406 148.762 147.501 148.962 147.692C149.162 147.882 149.262 148.118 149.262 148.4C149.262 148.543 149.233 148.684 149.174 148.822C149.116 148.961 149.018 149.106 148.881 149.259C148.746 149.412 148.521 149.622 148.205 149.889C147.942 150.111 147.772 150.261 147.697 150.341C147.623 150.419 147.561 150.498 147.512 150.578H149.267ZM151.15 151V150.143H149.597V149.74L151.23 147.421H151.589V149.74H152.072V150.143H151.589V151H151.15ZM151.15 149.74V148.126L150.029 149.74H151.15ZM152.317 151.061L153.354 147.36H153.706L152.671 151.061H152.317ZM153.916 149.235C153.916 148.812 153.959 148.472 154.045 148.214C154.133 147.956 154.262 147.756 154.433 147.616C154.606 147.476 154.822 147.406 155.083 147.406C155.275 147.406 155.443 147.445 155.588 147.523C155.733 147.6 155.853 147.711 155.947 147.858C156.041 148.003 156.115 148.18 156.169 148.39C156.223 148.598 156.25 148.88 156.25 149.235C156.25 149.655 156.207 149.994 156.12 150.253C156.034 150.51 155.905 150.709 155.732 150.851C155.561 150.991 155.345 151.061 155.083 151.061C154.738 151.061 154.467 150.937 154.27 150.69C154.034 150.392 153.916 149.907 153.916 149.235ZM154.367 149.235C154.367 149.822 154.436 150.214 154.572 150.409C154.711 150.603 154.881 150.7 155.083 150.7C155.284 150.7 155.454 150.602 155.59 150.407C155.729 150.211 155.798 149.821 155.798 149.235C155.798 148.646 155.729 148.254 155.59 148.061C155.454 147.867 155.283 147.77 155.078 147.77C154.876 147.77 154.715 147.855 154.594 148.026C154.443 148.244 154.367 148.647 154.367 149.235ZM156.765 150.172L157.187 150.133C157.223 150.332 157.291 150.476 157.392 150.565C157.493 150.655 157.623 150.7 157.78 150.7C157.916 150.7 158.034 150.669 158.134 150.607C158.237 150.545 158.321 150.463 158.386 150.36C158.451 150.256 158.506 150.116 158.549 149.94C158.593 149.765 158.615 149.586 158.615 149.403C158.615 149.384 158.615 149.354 158.613 149.315C158.525 149.455 158.405 149.569 158.252 149.657C158.1 149.743 157.936 149.787 157.758 149.787C157.462 149.787 157.212 149.679 157.006 149.464C156.801 149.25 156.699 148.966 156.699 148.615C156.699 148.252 156.805 147.96 157.019 147.738C157.234 147.517 157.502 147.406 157.824 147.406C158.057 147.406 158.27 147.469 158.462 147.594C158.655 147.72 158.802 147.899 158.901 148.131C159.002 148.362 159.052 148.698 159.052 149.137C159.052 149.595 159.003 149.959 158.903 150.231C158.804 150.501 158.656 150.707 158.459 150.849C158.264 150.99 158.034 151.061 157.771 151.061C157.491 151.061 157.262 150.984 157.085 150.829C156.907 150.673 156.801 150.454 156.765 150.172ZM158.564 148.593C158.564 148.34 158.497 148.14 158.361 147.992C158.228 147.844 158.067 147.77 157.878 147.77C157.683 147.77 157.513 147.85 157.368 148.009C157.223 148.169 157.151 148.375 157.151 148.629C157.151 148.857 157.219 149.043 157.356 149.186C157.494 149.328 157.664 149.398 157.866 149.398C158.069 149.398 158.236 149.328 158.366 149.186C158.498 149.043 158.564 148.845 158.564 148.593Z" fill="black"/>
<path d="M184.831 150.578V151H182.465C182.462 150.894 182.479 150.792 182.516 150.695C182.576 150.534 182.672 150.375 182.804 150.219C182.938 150.062 183.13 149.882 183.381 149.677C183.77 149.358 184.032 149.105 184.169 148.92C184.306 148.733 184.374 148.556 184.374 148.39C184.374 148.216 184.311 148.069 184.186 147.951C184.062 147.83 183.901 147.77 183.7 147.77C183.489 147.77 183.319 147.833 183.193 147.96C183.066 148.087 183.001 148.263 183 148.488L182.548 148.441C182.579 148.104 182.695 147.848 182.897 147.672C183.099 147.495 183.37 147.406 183.71 147.406C184.054 147.406 184.325 147.501 184.526 147.692C184.726 147.882 184.826 148.118 184.826 148.4C184.826 148.543 184.797 148.684 184.738 148.822C184.679 148.961 184.582 149.106 184.445 149.259C184.31 149.412 184.084 149.622 183.769 149.889C183.505 150.111 183.336 150.261 183.261 150.341C183.186 150.419 183.124 150.498 183.075 150.578H184.831ZM185.304 150.062L185.766 150.023C185.8 150.248 185.879 150.417 186.003 150.531C186.128 150.644 186.278 150.7 186.454 150.7C186.666 150.7 186.845 150.62 186.991 150.46C187.138 150.301 187.211 150.089 187.211 149.826C187.211 149.575 187.14 149.377 186.999 149.232C186.859 149.088 186.675 149.015 186.447 149.015C186.305 149.015 186.178 149.048 186.064 149.113C185.95 149.176 185.86 149.259 185.795 149.362L185.382 149.308L185.729 147.47H187.509V147.89H186.081L185.888 148.852C186.103 148.702 186.328 148.627 186.564 148.627C186.877 148.627 187.14 148.735 187.355 148.952C187.57 149.168 187.677 149.446 187.677 149.787C187.677 150.111 187.583 150.39 187.394 150.626C187.165 150.916 186.851 151.061 186.454 151.061C186.129 151.061 185.863 150.97 185.656 150.788C185.451 150.605 185.334 150.364 185.304 150.062ZM187.88 151.061L188.918 147.36H189.269L188.234 151.061H187.88ZM189.479 149.235C189.479 148.812 189.522 148.472 189.609 148.214C189.696 147.956 189.826 147.756 189.997 147.616C190.169 147.476 190.386 147.406 190.646 147.406C190.838 147.406 191.007 147.445 191.152 147.523C191.296 147.6 191.416 147.711 191.51 147.858C191.605 148.003 191.679 148.18 191.733 148.39C191.786 148.598 191.813 148.88 191.813 149.235C191.813 149.655 191.77 149.994 191.684 150.253C191.597 150.51 191.468 150.709 191.296 150.851C191.125 150.991 190.908 151.061 190.646 151.061C190.301 151.061 190.03 150.937 189.833 150.69C189.597 150.392 189.479 149.907 189.479 149.235ZM189.931 149.235C189.931 149.822 189.999 150.214 190.136 150.409C190.274 150.603 190.444 150.7 190.646 150.7C190.848 150.7 191.017 150.602 191.154 150.407C191.292 150.211 191.361 149.821 191.361 149.235C191.361 148.646 191.292 148.254 191.154 148.061C191.017 147.867 190.846 147.77 190.641 147.77C190.439 147.77 190.278 147.855 190.158 148.026C190.006 148.244 189.931 148.647 189.931 149.235ZM192.328 150.172L192.751 150.133C192.786 150.332 192.855 150.476 192.956 150.565C193.057 150.655 193.186 150.7 193.344 150.7C193.479 150.7 193.597 150.669 193.698 150.607C193.8 150.545 193.884 150.463 193.949 150.36C194.014 150.256 194.069 150.116 194.113 149.94C194.157 149.765 194.179 149.586 194.179 149.403C194.179 149.384 194.178 149.354 194.176 149.315C194.089 149.455 193.968 149.569 193.815 149.657C193.664 149.743 193.499 149.787 193.322 149.787C193.026 149.787 192.775 149.679 192.57 149.464C192.365 149.25 192.262 148.966 192.262 148.615C192.262 148.252 192.369 147.96 192.582 147.738C192.797 147.517 193.066 147.406 193.388 147.406C193.621 147.406 193.833 147.469 194.025 147.594C194.219 147.72 194.365 147.899 194.464 148.131C194.565 148.362 194.616 148.698 194.616 149.137C194.616 149.595 194.566 149.959 194.467 150.231C194.368 150.501 194.22 150.707 194.023 150.849C193.827 150.99 193.598 151.061 193.334 151.061C193.054 151.061 192.825 150.984 192.648 150.829C192.471 150.673 192.364 150.454 192.328 150.172ZM194.128 148.593C194.128 148.34 194.06 148.14 193.925 147.992C193.791 147.844 193.63 147.77 193.442 147.77C193.246 147.77 193.076 147.85 192.931 148.009C192.786 148.169 192.714 148.375 192.714 148.629C192.714 148.857 192.782 149.043 192.919 149.186C193.057 149.328 193.228 149.398 193.429 149.398C193.633 149.398 193.8 149.328 193.93 149.186C194.062 149.043 194.128 148.845 194.128 148.593Z" fill="black"/>
<path d="M43.2288 122.282V122.704H40.8631C40.8599 122.599 40.8769 122.497 40.9144 122.399C40.9746 122.238 41.0706 122.079 41.2025 121.923C41.3359 121.767 41.528 121.586 41.7786 121.381C42.1676 121.062 42.4305 120.81 42.5672 120.624C42.7039 120.437 42.7723 120.26 42.7723 120.094C42.7723 119.92 42.7096 119.774 42.5843 119.655C42.4606 119.535 42.2987 119.474 42.0985 119.474C41.8869 119.474 41.7176 119.538 41.5906 119.665C41.4637 119.792 41.3994 119.968 41.3978 120.192L40.9461 120.146C40.977 119.809 41.0934 119.552 41.2952 119.377C41.4971 119.199 41.7681 119.111 42.1082 119.111C42.4517 119.111 42.7235 119.206 42.9237 119.396C43.1239 119.587 43.2239 119.823 43.2239 120.104C43.2239 120.247 43.1947 120.388 43.1361 120.527C43.0775 120.665 42.9798 120.811 42.8431 120.964C42.708 121.117 42.4826 121.327 42.1668 121.594C41.9031 121.815 41.7339 121.965 41.659 122.045C41.5841 122.123 41.5223 122.202 41.4735 122.282H43.2288ZM43.7025 121.767L44.1639 121.728C44.1981 121.952 44.277 122.122 44.4007 122.236C44.526 122.348 44.6766 122.404 44.8524 122.404C45.064 122.404 45.243 122.324 45.3895 122.165C45.536 122.005 45.6092 121.794 45.6092 121.53C45.6092 121.279 45.5384 121.082 45.3968 120.937C45.2568 120.792 45.0729 120.719 44.845 120.719C44.7034 120.719 44.5757 120.752 44.4617 120.817C44.3478 120.881 44.2583 120.964 44.1932 121.066L43.7806 121.012L44.1273 119.174H45.9071V119.594H44.4788L44.286 120.556C44.5008 120.406 44.7262 120.331 44.9622 120.331C45.2747 120.331 45.5384 120.44 45.7532 120.656C45.9681 120.872 46.0755 121.151 46.0755 121.491C46.0755 121.815 45.9811 122.095 45.7923 122.331C45.5628 122.621 45.2495 122.765 44.8524 122.765C44.5268 122.765 44.2607 122.674 44.054 122.492C43.8489 122.31 43.7318 122.068 43.7025 121.767ZM46.4857 120.939C46.4857 120.516 46.5288 120.176 46.6151 119.919C46.703 119.66 46.8323 119.461 47.0032 119.321C47.1758 119.181 47.3922 119.111 47.6527 119.111C47.8447 119.111 48.0132 119.15 48.158 119.228C48.3029 119.304 48.4225 119.416 48.5169 119.562C48.6113 119.707 48.6854 119.885 48.7391 120.094C48.7928 120.303 48.8197 120.584 48.8197 120.939C48.8197 121.359 48.7765 121.698 48.6903 121.957C48.604 122.214 48.4746 122.414 48.3021 122.555C48.1312 122.695 47.9147 122.765 47.6527 122.765C47.3076 122.765 47.0366 122.642 46.8397 122.394C46.6037 122.096 46.4857 121.611 46.4857 120.939ZM46.9373 120.939C46.9373 121.527 47.0057 121.918 47.1424 122.114C47.2808 122.307 47.4508 122.404 47.6527 122.404C47.8545 122.404 48.0238 122.306 48.1605 122.111C48.2988 121.916 48.368 121.525 48.368 120.939C48.368 120.35 48.2988 119.959 48.1605 119.765C48.0238 119.571 47.8529 119.474 47.6478 119.474C47.446 119.474 47.2848 119.56 47.1644 119.731C47.013 119.949 46.9373 120.352 46.9373 120.939Z" fill="black"/>
<path d="M40.9193 101.245L41.3807 101.206C41.4149 101.431 41.4938 101.6 41.6175 101.714C41.7428 101.826 41.8934 101.883 42.0692 101.883C42.2808 101.883 42.4598 101.803 42.6063 101.643C42.7528 101.484 42.826 101.272 42.826 101.009C42.826 100.758 42.7552 100.56 42.6136 100.415C42.4736 100.27 42.2897 100.198 42.0618 100.198C41.9202 100.198 41.7925 100.231 41.6785 100.296C41.5646 100.359 41.4751 100.442 41.41 100.545L40.9974 100.491L41.3441 98.6526H43.1239V99.0725H41.6956L41.5028 100.034C41.7176 99.8847 41.943 99.8098 42.179 99.8098C42.4915 99.8098 42.7552 99.9181 42.97 100.135C43.1849 100.351 43.2923 100.629 43.2923 100.969C43.2923 101.293 43.1979 101.573 43.0091 101.809C42.7796 102.099 42.4663 102.244 42.0692 102.244C41.7436 102.244 41.4775 102.153 41.2708 101.97C41.0657 101.788 40.9486 101.546 40.9193 101.245ZM43.7025 100.418C43.7025 99.9945 43.7456 99.6544 43.8319 99.3972C43.9198 99.1384 44.0491 98.939 44.22 98.7991C44.3926 98.6591 44.609 98.5891 44.8695 98.5891C45.0615 98.5891 45.23 98.6282 45.3748 98.7063C45.5197 98.7828 45.6393 98.8943 45.7337 99.0408C45.8281 99.1856 45.9022 99.363 45.9559 99.573C46.0096 99.7813 46.0364 100.063 46.0364 100.418C46.0364 100.838 45.9933 101.177 45.9071 101.436C45.8208 101.693 45.6914 101.892 45.5189 102.034C45.348 102.174 45.1315 102.244 44.8695 102.244C44.5244 102.244 44.2534 102.12 44.0565 101.873C43.8205 101.575 43.7025 101.09 43.7025 100.418ZM44.1541 100.418C44.1541 101.005 44.2225 101.397 44.3592 101.592C44.4975 101.786 44.6676 101.883 44.8695 101.883C45.0713 101.883 45.2406 101.785 45.3773 101.59C45.5156 101.394 45.5848 101.004 45.5848 100.418C45.5848 99.8285 45.5156 99.4371 45.3773 99.2434C45.2406 99.0497 45.0697 98.9529 44.8646 98.9529C44.6628 98.9529 44.5016 99.0383 44.3812 99.2092C44.2298 99.4273 44.1541 99.8302 44.1541 100.418ZM46.4857 100.418C46.4857 99.9945 46.5288 99.6544 46.6151 99.3972C46.703 99.1384 46.8323 98.939 47.0032 98.7991C47.1758 98.6591 47.3922 98.5891 47.6527 98.5891C47.8447 98.5891 48.0132 98.6282 48.158 98.7063C48.3029 98.7828 48.4225 98.8943 48.5169 99.0408C48.6113 99.1856 48.6854 99.363 48.7391 99.573C48.7928 99.7813 48.8197 100.063 48.8197 100.418C48.8197 100.838 48.7765 101.177 48.6903 101.436C48.604 101.693 48.4746 101.892 48.3021 102.034C48.1312 102.174 47.9147 102.244 47.6527 102.244C47.3076 102.244 47.0366 102.12 46.8397 101.873C46.6037 101.575 46.4857 101.09 46.4857 100.418ZM46.9373 100.418C46.9373 101.005 47.0057 101.397 47.1424 101.592C47.2808 101.786 47.4508 101.883 47.6527 101.883C47.8545 101.883 48.0238 101.785 48.1605 101.59C48.2988 101.394 48.368 101.004 48.368 100.418C48.368 99.8285 48.2988 99.4371 48.1605 99.2434C48.0238 99.0497 47.8529 98.9529 47.6478 98.9529C47.446 98.9529 47.2848 99.0383 47.1644 99.2092C47.013 99.4273 46.9373 99.8302 46.9373 100.418Z" fill="black"/>
<path d="M40.9486 77.4111V76.9888H43.2655V77.3306C43.0376 77.5731 42.8114 77.8953 42.5867 78.2974C42.3638 78.6994 42.1912 79.1128 42.0692 79.5376C41.9813 79.8371 41.9251 80.165 41.9007 80.5215H41.449C41.4539 80.2399 41.5093 79.8997 41.6151 79.501C41.7209 79.1022 41.8722 78.7181 42.0692 78.3486C42.2677 77.9775 42.4785 77.665 42.7015 77.4111H40.9486ZM43.7025 79.584L44.1639 79.5449C44.1981 79.7695 44.277 79.9388 44.4007 80.0527C44.526 80.165 44.6766 80.2212 44.8524 80.2212C45.064 80.2212 45.243 80.1414 45.3895 79.9819C45.536 79.8224 45.6092 79.6108 45.6092 79.3472C45.6092 79.0965 45.5384 78.8988 45.3968 78.7539C45.2568 78.609 45.0729 78.5366 44.845 78.5366C44.7034 78.5366 44.5757 78.5692 44.4617 78.6343C44.3478 78.6978 44.2583 78.7808 44.1932 78.8833L43.7806 78.8296L44.1273 76.9912H45.9071V77.4111H44.4788L44.286 78.373C44.5008 78.2233 44.7262 78.1484 44.9622 78.1484C45.2747 78.1484 45.5384 78.2567 45.7532 78.4731C45.9681 78.6896 46.0755 78.9679 46.0755 79.3081C46.0755 79.632 45.9811 79.9119 45.7923 80.1479C45.5628 80.4377 45.2495 80.5825 44.8524 80.5825C44.5268 80.5825 44.2607 80.4914 44.054 80.3091C43.8489 80.1268 43.7318 79.8851 43.7025 79.584ZM46.4857 78.7563C46.4857 78.3332 46.5288 77.993 46.6151 77.7358C46.703 77.4771 46.8323 77.2777 47.0032 77.1377C47.1758 76.9977 47.3922 76.9277 47.6527 76.9277C47.8447 76.9277 48.0132 76.9668 48.158 77.0449C48.3029 77.1214 48.4225 77.2329 48.5169 77.3794C48.6113 77.5243 48.6854 77.7017 48.7391 77.9116C48.7928 78.12 48.8197 78.4015 48.8197 78.7563C48.8197 79.1763 48.7765 79.5156 48.6903 79.7744C48.604 80.0316 48.4746 80.231 48.3021 80.3726C48.1312 80.5125 47.9147 80.5825 47.6527 80.5825C47.3076 80.5825 47.0366 80.4588 46.8397 80.2114C46.6037 79.9136 46.4857 79.4285 46.4857 78.7563ZM46.9373 78.7563C46.9373 79.3439 47.0057 79.7354 47.1424 79.9307C47.2808 80.1243 47.4508 80.2212 47.6527 80.2212C47.8545 80.2212 48.0238 80.1235 48.1605 79.9282C48.2988 79.7329 48.368 79.3423 48.368 78.7563C48.368 78.1672 48.2988 77.7757 48.1605 77.582C48.0238 77.3883 47.8529 77.2915 47.6478 77.2915C47.446 77.2915 47.2848 77.377 47.1644 77.5479C47.013 77.766 46.9373 78.1688 46.9373 78.7563Z" fill="black"/>
<path d="M39.7913 60H39.3519V57.1997C39.2461 57.3006 39.1069 57.4015 38.9344 57.5024C38.7635 57.6034 38.6097 57.679 38.473 57.7295V57.3047C38.7187 57.1891 38.9336 57.0492 39.1175 56.8848C39.3014 56.7204 39.4316 56.5609 39.5081 56.4062H39.7913V60ZM40.9193 58.2349C40.9193 57.8117 40.9624 57.4715 41.0487 57.2144C41.1365 56.9556 41.2659 56.7562 41.4368 56.6162C41.6094 56.4762 41.8258 56.4062 42.0863 56.4062C42.2783 56.4062 42.4468 56.4453 42.5916 56.5234C42.7365 56.5999 42.8561 56.7114 42.9505 56.8579C43.0449 57.0028 43.119 57.1802 43.1727 57.3901C43.2264 57.5985 43.2532 57.88 43.2532 58.2349C43.2532 58.6548 43.2101 58.9941 43.1239 59.2529C43.0376 59.5101 42.9082 59.7095 42.7357 59.8511C42.5648 59.991 42.3483 60.061 42.0863 60.061C41.7412 60.061 41.4702 59.9373 41.2733 59.6899C41.0373 59.3921 40.9193 58.9071 40.9193 58.2349ZM41.3709 58.2349C41.3709 58.8224 41.4393 59.2139 41.576 59.4092C41.7143 59.6029 41.8844 59.6997 42.0863 59.6997C42.2881 59.6997 42.4573 59.6021 42.5941 59.4067C42.7324 59.2114 42.8016 58.8208 42.8016 58.2349C42.8016 57.6457 42.7324 57.2542 42.5941 57.0605C42.4573 56.8669 42.2864 56.77 42.0814 56.77C41.8795 56.77 41.7184 56.8555 41.598 57.0264C41.4466 57.2445 41.3709 57.6473 41.3709 58.2349ZM43.7025 58.2349C43.7025 57.8117 43.7456 57.4715 43.8319 57.2144C43.9198 56.9556 44.0491 56.7562 44.22 56.6162C44.3926 56.4762 44.609 56.4062 44.8695 56.4062C45.0615 56.4062 45.23 56.4453 45.3748 56.5234C45.5197 56.5999 45.6393 56.7114 45.7337 56.8579C45.8281 57.0028 45.9022 57.1802 45.9559 57.3901C46.0096 57.5985 46.0364 57.88 46.0364 58.2349C46.0364 58.6548 45.9933 58.9941 45.9071 59.2529C45.8208 59.5101 45.6914 59.7095 45.5189 59.8511C45.348 59.991 45.1315 60.061 44.8695 60.061C44.5244 60.061 44.2534 59.9373 44.0565 59.6899C43.8205 59.3921 43.7025 58.9071 43.7025 58.2349ZM44.1541 58.2349C44.1541 58.8224 44.2225 59.2139 44.3592 59.4092C44.4975 59.6029 44.6676 59.6997 44.8695 59.6997C45.0713 59.6997 45.2406 59.6021 45.3773 59.4067C45.5156 59.2114 45.5848 58.8208 45.5848 58.2349C45.5848 57.6457 45.5156 57.2542 45.3773 57.0605C45.2406 56.8669 45.0697 56.77 44.8646 56.77C44.6628 56.77 44.5016 56.8555 44.3812 57.0264C44.2298 57.2445 44.1541 57.6473 44.1541 58.2349ZM46.4857 58.2349C46.4857 57.8117 46.5288 57.4715 46.6151 57.2144C46.703 56.9556 46.8323 56.7562 47.0032 56.6162C47.1758 56.4762 47.3922 56.4062 47.6527 56.4062C47.8447 56.4062 48.0132 56.4453 48.158 56.5234C48.3029 56.5999 48.4225 56.7114 48.5169 56.8579C48.6113 57.0028 48.6854 57.1802 48.7391 57.3901C48.7928 57.5985 48.8197 57.88 48.8197 58.2349C48.8197 58.6548 48.7765 58.9941 48.6903 59.2529C48.604 59.5101 48.4746 59.7095 48.3021 59.8511C48.1312 59.991 47.9147 60.061 47.6527 60.061C47.3076 60.061 47.0366 59.9373 46.8397 59.6899C46.6037 59.3921 46.4857 58.9071 46.4857 58.2349ZM46.9373 58.2349C46.9373 58.8224 47.0057 59.2139 47.1424 59.4092C47.2808 59.6029 47.4508 59.6997 47.6527 59.6997C47.8545 59.6997 48.0238 59.6021 48.1605 59.4067C48.2988 59.2114 48.368 58.8208 48.368 58.2349C48.368 57.6457 48.2988 57.2542 48.1605 57.0605C48.0238 56.8669 47.8529 56.77 47.6478 56.77C47.446 56.77 47.2848 56.8555 47.1644 57.0264C47.013 57.2445 46.9373 57.6473 46.9373 58.2349Z" fill="black"/>
<g clip-path="url(#clip0_273_140)">
<rect x="81.0117" y="117.37" width="1.1496" height="25.2913" fill="black"/>
<circle cx="81.5866" cy="115.358" r="2.58661" fill="black"/>
</g>
<g clip-path="url(#clip1_273_140)">
<rect x="116.012" y="128.496" width="1.1496" height="13.7953" fill="black"/>
<circle cx="116.587" cy="126.484" r="2.58661" fill="black"/>
</g>
<g clip-path="url(#clip2_273_140)">
<rect x="151.012" y="121.598" width="1.1496" height="20.6929" fill="black"/>
<circle cx="151.587" cy="119.587" r="2.58661" fill="black"/>
</g>
<g clip-path="url(#clip3_273_140)">
<rect x="187.012" y="83.5984" width="1.1496" height="59.063" fill="black"/>
<circle cx="187.587" cy="81.5866" r="2.58661" fill="black"/>
</g>
<defs>
<clipPath id="clip0_273_140">
<rect width="5.17322" height="29.8897" fill="white" transform="translate(79 112.771)"/>
</clipPath>
<clipPath id="clip1_273_140">
<rect width="5.17322" height="18.3937" fill="white" transform="translate(114 123.898)"/>
</clipPath>
<clipPath id="clip2_273_140">
<rect width="5.17322" height="25.2913" fill="white" transform="translate(149 117)"/>
</clipPath>
<clipPath id="clip3_273_140">
<rect width="5" height="64" fill="white" transform="translate(185 79)"/>
</clipPath>
</defs>
</svg>
