<svg width="90" height="90" viewBox="0 0 90 90" fill="none" xmlns="http://www.w3.org/2000/svg">
<path d="M90 45C90 69.8528 69.8528 90 45 90C20.1472 90 0 69.8528 0 45C0 20.1472 20.1472 0 45 0C69.8528 0 90 20.1472 90 45ZM9 45C9 64.8822 25.1177 81 45 81C64.8822 81 81 64.8822 81 45C81 25.1177 64.8822 9 45 9C25.1177 9 9 25.1177 9 45Z" fill="#FFD7D9"/>
<path d="M45 4.5C45 2.01472 47.0197 -0.0233038 49.4925 0.224814C53.8609 0.663114 58.1498 1.73917 62.2208 3.42542C67.6804 5.68688 72.6412 9.00156 76.8198 13.1802C80.9984 17.3588 84.3131 22.3196 86.5746 27.7793C88.2608 31.8502 89.3369 36.1391 89.7752 40.5075C90.0233 42.9803 87.9853 45 85.5 45C83.0147 45 81.029 42.9776 80.7191 40.5117C80.3188 37.3263 79.4934 34.2019 78.2597 31.2234C76.4505 26.8557 73.7988 22.8871 70.4558 19.5442C67.1129 16.2012 63.1443 13.5495 58.7766 11.7403C55.7981 10.5066 52.6737 9.68116 49.4883 9.28089C47.0224 8.97103 45 6.98528 45 4.5Z" fill="#DA1E28"/>
<path d="M38.684 43.156C37.62 43.156 36.828 42.804 36.308 42.1C35.788 41.388 35.528 40.46 35.528 39.316V38.248C35.528 37.104 35.788 36.184 36.308 35.488C36.828 34.784 37.62 34.432 38.684 34.432C39.748 34.432 40.54 34.784 41.06 35.488C41.58 36.184 41.84 37.104 41.84 38.248V39.316C41.84 40.46 41.58 41.388 41.06 42.1C40.54 42.804 39.748 43.156 38.684 43.156ZM38.684 41.884C39.716 41.884 40.232 41.036 40.232 39.34V38.212C40.232 36.532 39.716 35.692 38.684 35.692C37.652 35.692 37.136 36.532 37.136 38.212V39.34C37.136 41.036 37.652 41.884 38.684 41.884ZM44.6185 43.096C44.3785 43.096 44.1745 43.012 44.0065 42.844C43.8465 42.676 43.7665 42.472 43.7665 42.232C43.7665 41.992 43.8465 41.788 44.0065 41.62C44.1745 41.452 44.3785 41.368 44.6185 41.368C44.8665 41.368 45.0705 41.452 45.2305 41.62C45.3985 41.788 45.4825 41.992 45.4825 42.232C45.4825 42.472 45.3985 42.676 45.2305 42.844C45.0625 43.012 44.8585 43.096 44.6185 43.096ZM50.5231 43.072C49.9471 43.072 49.4431 42.96 49.0111 42.736C48.5871 42.504 48.2511 42.208 48.0031 41.848C47.7631 41.48 47.6111 41.08 47.5471 40.648H49.0111C49.1071 41.024 49.2911 41.308 49.5631 41.5C49.8351 41.684 50.1471 41.776 50.4991 41.776C50.9791 41.776 51.3511 41.62 51.6151 41.308C51.8871 40.988 52.0231 40.58 52.0231 40.084C52.0231 39.564 51.8791 39.156 51.5911 38.86C51.3111 38.564 50.9391 38.416 50.4751 38.416C49.8191 38.416 49.3631 38.716 49.1071 39.316L47.6551 39.268L47.8831 34.6H52.9471V35.932H49.0711L48.9511 38.2H49.0111C49.1391 38.016 49.3391 37.832 49.6111 37.648C49.8911 37.464 50.2991 37.372 50.8351 37.372C51.6431 37.372 52.2831 37.616 52.7551 38.104C53.2351 38.592 53.4751 39.252 53.4751 40.084C53.4751 40.628 53.3591 41.128 53.1271 41.584C52.9031 42.032 52.5671 42.392 52.1191 42.664C51.6791 42.936 51.1471 43.072 50.5231 43.072Z" fill="#404040"/>
<path d="M32.024 52.664H33.476V53.732H33.56C33.6 53.628 33.684 53.484 33.812 53.3C33.94 53.116 34.14 52.94 34.412 52.772C34.684 52.596 35.02 52.508 35.42 52.508C35.852 52.508 36.212 52.608 36.5 52.808C36.788 53.008 36.996 53.216 37.124 53.432C37.26 53.648 37.344 53.808 37.376 53.912H37.46C37.588 53.624 37.8 53.32 38.096 53C38.4 52.672 38.876 52.508 39.524 52.508C40.06 52.508 40.492 52.648 40.82 52.928C41.156 53.2 41.396 53.54 41.54 53.948C41.684 54.348 41.756 54.744 41.756 55.136V59H40.304V55.28C40.304 54.784 40.176 54.412 39.92 54.164C39.672 53.908 39.36 53.78 38.984 53.78C38.608 53.78 38.284 53.912 38.012 54.176C37.748 54.432 37.616 54.8 37.616 55.28V59H36.164V55.28C36.164 54.784 36.036 54.412 35.78 54.164C35.532 53.908 35.22 53.78 34.844 53.78C34.468 53.78 34.144 53.912 33.872 54.176C33.608 54.432 33.476 54.8 33.476 55.28V59H32.024V52.664ZM44.0274 54.488C43.5234 54.488 43.1234 54.36 42.8274 54.104C42.5394 53.848 42.3794 53.52 42.3474 53.12H43.2714C43.3114 53.288 43.3994 53.42 43.5354 53.516C43.6714 53.612 43.8354 53.66 44.0274 53.66C44.2594 53.66 44.4394 53.6 44.5674 53.48C44.6954 53.36 44.7594 53.216 44.7594 53.048C44.7594 52.864 44.6874 52.716 44.5434 52.604C44.4074 52.492 44.2394 52.436 44.0394 52.436H43.6314V51.74H44.0034C44.1954 51.74 44.3594 51.692 44.4954 51.596C44.6314 51.5 44.6994 51.356 44.6994 51.164C44.6994 50.988 44.6354 50.844 44.5074 50.732C44.3794 50.62 44.2154 50.564 44.0154 50.564C43.8074 50.564 43.6474 50.616 43.5354 50.72C43.4234 50.816 43.3554 50.944 43.3314 51.104H42.4314C42.5034 50.736 42.6634 50.432 42.9114 50.192C43.1674 49.952 43.5394 49.832 44.0274 49.832C44.5554 49.832 44.9474 49.964 45.2034 50.228C45.4594 50.492 45.5874 50.796 45.5874 51.14C45.5874 51.348 45.5354 51.524 45.4314 51.668C45.3354 51.812 45.2314 51.92 45.1194 51.992C45.0074 52.064 44.9354 52.1 44.9034 52.1V52.124C45.0154 52.172 45.1154 52.22 45.2034 52.268C45.2914 52.316 45.3874 52.412 45.4914 52.556C45.5954 52.7 45.6474 52.888 45.6474 53.12C45.6474 53.328 45.5914 53.54 45.4794 53.756C45.3674 53.964 45.1874 54.14 44.9394 54.284C44.6994 54.42 44.3954 54.488 44.0274 54.488ZM50.1703 49.484H51.5503L47.3743 61.172H46.0063L50.1703 49.484ZM52.2224 50.072H53.6864V53.696H53.7704C53.9224 53.368 54.1624 53.088 54.4904 52.856C54.8264 52.624 55.2344 52.508 55.7144 52.508C56.5304 52.508 57.1184 52.772 57.4784 53.3C57.8384 53.828 58.0184 54.44 58.0184 55.136V59H56.5664V55.364C56.5664 54.844 56.4384 54.444 56.1824 54.164C55.9344 53.876 55.5824 53.732 55.1264 53.732C54.6944 53.732 54.3464 53.884 54.0824 54.188C53.8184 54.484 53.6864 54.876 53.6864 55.364V59H52.2224V50.072Z" fill="#262626"/>
</svg>
