<svg width="264" height="43" viewBox="0 0 264 43" fill="none" xmlns="http://www.w3.org/2000/svg">
<path d="M13.3771 42.108C12.4011 42.108 11.6691 41.768 11.1811 41.088C10.6931 40.4 10.4491 39.516 10.4491 38.436V37.092C10.4491 36.012 10.6931 35.132 11.1811 34.452C11.6691 33.764 12.4011 33.42 13.3771 33.42C14.3531 33.42 15.0851 33.764 15.5731 34.452C16.0691 35.132 16.3171 36.012 16.3171 37.092V38.436C16.3171 39.516 16.0691 40.4 15.5731 41.088C15.0851 41.768 14.3531 42.108 13.3771 42.108ZM13.3771 41.364C14.0331 41.364 14.5411 41.112 14.9011 40.608C15.2611 40.104 15.4411 39.352 15.4411 38.352V37.176C15.4411 36.176 15.2611 35.424 14.9011 34.92C14.5411 34.416 14.0331 34.164 13.3771 34.164C12.7211 34.164 12.2131 34.416 11.8531 34.92C11.5011 35.424 11.3251 36.176 11.3251 37.176V38.352C11.3251 39.352 11.5011 40.104 11.8531 40.608C12.2131 41.112 12.7211 41.364 13.3771 41.364ZM20.7343 33.024H21.5623V38.076H21.6103L24.1663 35.688H25.1263L22.1623 38.496L25.2583 42H24.2983L21.6103 38.904H21.5623V42H20.7343V33.024ZM29.482 33.6C30.17 33.6 30.73 33.736 31.162 34.008C31.594 34.28 31.902 34.62 32.086 35.028C32.27 35.436 32.362 35.864 32.362 36.312C32.362 36.76 32.27 37.188 32.086 37.596C31.902 38.004 31.594 38.344 31.162 38.616C30.738 38.88 30.178 39.012 29.482 39.012H27.514V42H26.71V33.6H29.482ZM29.398 38.28C30.006 38.28 30.518 38.132 30.934 37.836C31.35 37.54 31.558 37.032 31.558 36.312C31.558 35.6 31.35 35.096 30.934 34.8C30.518 34.504 30.006 34.356 29.398 34.356H27.514V38.28H29.398ZM36.0578 42.072C35.4978 42.072 35.0138 41.928 34.6058 41.64C34.2058 41.352 33.8978 40.96 33.6818 40.464C33.4738 39.968 33.3698 39.412 33.3698 38.796C33.3698 38.172 33.4738 37.612 33.6818 37.116C33.8978 36.612 34.2098 36.216 34.6178 35.928C35.0338 35.64 35.5298 35.496 36.1058 35.496C36.6738 35.496 37.1338 35.636 37.4858 35.916C37.8458 36.188 38.1218 36.52 38.3138 36.912H38.3978V35.688H39.2258V42H38.3978V40.632H38.3138C38.1058 41.04 37.8178 41.384 37.4498 41.664C37.0898 41.936 36.6258 42.072 36.0578 42.072ZM36.2858 41.34C36.9578 41.34 37.4698 41.1 37.8218 40.62C38.1818 40.132 38.3618 39.52 38.3618 38.784C38.3618 38.048 38.1818 37.44 37.8218 36.96C37.4698 36.48 36.9578 36.24 36.2858 36.24C35.6058 36.24 35.0898 36.484 34.7378 36.972C34.3938 37.452 34.2218 38.056 34.2218 38.784C34.2218 39.52 34.3978 40.132 34.7498 40.62C35.1018 41.1 35.6138 41.34 36.2858 41.34Z" fill="black"/>
<path d="M236.51 42.024C235.998 42.024 235.542 41.928 235.142 41.736C234.75 41.536 234.434 41.28 234.194 40.968C233.962 40.648 233.81 40.304 233.738 39.936H234.566C234.702 40.384 234.946 40.72 235.298 40.944C235.658 41.16 236.058 41.268 236.498 41.268C237.138 41.268 237.63 41.072 237.974 40.68C238.326 40.28 238.502 39.752 238.502 39.096C238.502 38.376 238.306 37.844 237.914 37.5C237.522 37.148 237.05 36.972 236.498 36.972C236.082 36.972 235.746 37.052 235.49 37.212C235.234 37.372 235.346 37.064 235.826 36.288C236.306 35.512 235.946 36.12 234.746 38.112L233.858 38.04L234.098 33.6H238.73V34.38H234.794L234.626 37.284H234.674C234.762 37.116 234.958 36.912 235.262 36.672C235.574 36.432 236.034 36.312 236.642 36.312C237.162 36.312 237.622 36.42 238.022 36.636C238.43 36.852 238.746 37.172 238.97 37.596C239.202 38.012 239.318 38.512 239.318 39.096C239.318 39.672 239.202 40.18 238.97 40.62C238.738 41.06 238.41 41.404 237.986 41.652C237.562 41.9 237.07 42.024 236.51 42.024ZM243.781 33.024H244.609V38.076H244.657L247.213 35.688H248.173L245.209 38.496L248.305 42H247.345L244.657 38.904H244.609V42H243.781V33.024ZM252.529 33.6C253.217 33.6 253.777 33.736 254.209 34.008C254.641 34.28 254.949 34.62 255.133 35.028C255.317 35.436 255.409 35.864 255.409 36.312C255.409 36.76 255.317 37.188 255.133 37.596C254.949 38.004 254.641 38.344 254.209 38.616C253.785 38.88 253.225 39.012 252.529 39.012H250.561V42H249.757V33.6H252.529ZM252.445 38.28C253.053 38.28 253.565 38.132 253.981 37.836C254.397 37.54 254.605 37.032 254.605 36.312C254.605 35.6 254.397 35.096 253.981 34.8C253.565 34.504 253.053 34.356 252.445 34.356H250.561V38.28H252.445ZM259.105 42.072C258.545 42.072 258.061 41.928 257.653 41.64C257.253 41.352 256.945 40.96 256.729 40.464C256.521 39.968 256.417 39.412 256.417 38.796C256.417 38.172 256.521 37.612 256.729 37.116C256.945 36.612 257.257 36.216 257.665 35.928C258.081 35.64 258.577 35.496 259.153 35.496C259.721 35.496 260.181 35.636 260.533 35.916C260.893 36.188 261.169 36.52 261.361 36.912H261.445V35.688H262.273V42H261.445V40.632H261.361C261.153 41.04 260.865 41.384 260.497 41.664C260.137 41.936 259.673 42.072 259.105 42.072ZM259.333 41.34C260.005 41.34 260.517 41.1 260.869 40.62C261.229 40.132 261.409 39.52 261.409 38.784C261.409 38.048 261.229 37.44 260.869 36.96C260.517 36.48 260.005 36.24 259.333 36.24C258.653 36.24 258.137 36.484 257.785 36.972C257.441 37.452 257.269 38.056 257.269 38.784C257.269 39.52 257.445 40.132 257.797 40.62C258.149 41.1 258.661 41.34 259.333 41.34Z" fill="black"/>
<rect x="22" y="9.69843" width="78.7547" height="10.8844" rx="5.44219" fill="#3ACE00"/>
<rect x="97.4736" y="9.69843" width="78.7547" height="10.8844" fill="#FFBB00"/>
<path d="M173.767 9.69843H247.079C250.085 9.69843 252.521 12.135 252.521 15.1406C252.521 18.1463 250.085 20.5828 247.079 20.5828H173.767V9.69843Z" fill="#FF0000"/>
<rect x="57" width="8" height="30" rx="4" fill="black"/>
</svg>
